<!DOCTYPE svg PUBLIC "-//W3C//DTD SVG 1.1//EN" "http://www.w3.org/Graphics/SVG/1.1/DTD/svg11.dtd">
<!-- Uploaded to: SVG Repo, www.svgrepo.com, Transformed by: SVG Repo Mixer Tools -->
<svg xmlns="http://www.w3.org/2000/svg" width="256px" height="256px" viewBox="-2.4 -2.4 28.80 28.80" fill="none" stroke="#a356e1" stroke-width="1.9200000000000004" stroke-linecap="round" stroke-linejoin="round" transform="rotate(0)">
<g id="SVGRepo_bgCarrier" stroke-width="0" transform="translate(0,0), scale(1)">
<path transform="translate(-2.4, -2.4), scale(1.7999999999999998)" fill="#f7f7f7" d="M9.166.33a2.25 2.25 0 00-2.332 0l-5.25 3.182A2.25 2.25 0 00.5 5.436v5.128a2.25 2.25 0 001.084 1.924l5.25 3.182a2.25 2.25 0 002.332 0l5.25-3.182a2.25 2.25 0 001.084-1.924V5.436a2.25 2.25 0 00-1.084-1.924L9.166.33z" strokewidth="0"/>
</g>
<g id="SVGRepo_tracerCarrier" stroke-linecap="round" stroke-linejoin="round" stroke="#CCCCCC" stroke-width="0.384"/>
<g id="SVGRepo_iconCarrier"> <path d="M7 22a5 5 0 01-2-4"/> <path d="M7 16.93c.96.43 1.96.74 2.99.91"/> <path d="M3.34 14A6.8 6.8 0 012 10c0-4.42 4.48-8 10-8s10 3.58 10 8a7.19 7.19 0 01-.33 2"/> <path d="M5 18a2 2 0 100-4 2 2 0 000 4z"/> <path d="M14.33 22h-.09a.35.35 0 01-.24-.32v-10a.34.34 0 01.33-.34c.08 0 .15.03.21.08l7.34 6a.33.33 0 01-.21.59h-4.49l-2.57 3.85a.35.35 0 01-.28.14v0z"/> </g>
</svg>